# xmcd
#
# Track frame offsets: 
#        150
#        11412
#        24607
#        42235
#        52810
#        70212
#        82347
#        94140
#        112202
#        127502
#        148682
#        161565
#        176790
#        191490
#        203567
#        220295
#
# Disc length: 3107 seconds
#
# Revision: 0
# Processed by: cddbd v1.5.2PL0 Copyright (c) Steve Scherf et al.
# Submitted via: ExactAudioCopy v0.99pb4
#
DISCID=df0c2110
DTITLE=Cosgrove Rushing - North to Bakersfield
DYEAR=1900
DGENRE=Country
TTITLE0=Bar-B-Q Country Style
TTITLE1=Mustang '65
TTITLE2=North To Bakersfield
TTITLE3=Walkin' Shoes
TTITLE4=Opening That Door
TTITLE5=Hey Little Sister
TTITLE6=I Don't Feel Like Talkin'
TTITLE7=At The End Of Erica's Day
TTITLE8=When You Wake Up I'll Be Gone
TTITLE9=Sail On
TTITLE10=Picket Fence
TTITLE11=Radio Flyer
TTITLE12=Goin' Honky Tonkin'
TTITLE13=Life's Too Short For That
TTITLE14=The Ricky Lake Show
TTITLE15=The Cowgirl Palace
EXTD=
EXTT0=
EXTT1=
EXTT2=
EXTT3=
EXTT4=
EXTT5=
EXTT6=
EXTT7=
EXTT8=
EXTT9=
EXTT10=
EXTT11=
EXTT12=
EXTT13=
EXTT14=
EXTT15=
PLAYORDER=
